<svg width="80" height="40" viewBox="0 0 80 40" fill="none" xmlns="http://www.w3.org/2000/svg">
  <!-- Transparent background -->
  
  <!-- Number '3' - Bold, modern style matching the 'A' - SCALED UP -->
  <path d="M12 4C16.5 4 20.5 5.5 23 8C24.5 9.5 25.5 12 25.5 14.5C25.5 17 24.5 18.5 23 20C21.5 21 20 21.5 18.5 21.5C20 21.5 21.5 22 23 23.5C24.5 25 25.5 27.5 25.5 30C25.5 32.5 24.5 35 23 36.5C20.5 39 16.5 40.5 12 40.5H4V35.5H12C14 35.5 16.5 35 18 33.5C19.5 32 20 30 20 28.5C20 26.5 19 24.5 17.5 23C16 21.5 14 21 11.5 21H7V19H11.5C14 19 16 18.5 17.5 17C19 15.5 20 13.5 20 11.5C20 10 19.5 8 18 6.5C16.5 5 14 4.5 12 4.5H4V0H12Z" fill="#FFD700"/>
  
  <!-- Letter 'A' - Stylized, bold - SCALED UP -->
  <path d="M48 0L64 36H58L54.5 26H41.5L38 36H32L48 0ZM52 20L48 9L44 20H52Z" fill="#FFD700" stroke="#FFD700" stroke-width="1.5"/>
</svg>
