<svg width="64" height="64" viewBox="0 0 64 64" fill="none" xmlns="http://www.w3.org/2000/svg">
  <!-- Circular background -->
  <circle cx="32" cy="32" r="30" fill="black"/>
  
  <!-- "3a" in white with road theme -->
  <g fill="white">
    <!-- Stylized "3" -->
    <path d="M18 20 C22 20, 25 21.5, 25 24.5 C25 26, 24 27, 22 27.5 C24 28, 25 29, 25 30.5 C25 33.5, 22 35, 18 35" 
          stroke="white" stroke-width="3" stroke-linecap="round" fill="none"/>
    
    <!-- Letter "a" -->
    <path d="M32 35 L32 28.5 C32 26, 33.5 24.5, 36 24.5 C38.5 24.5, 40 26, 40 28.5 L40 35 M40 31 C38.5 31, 37 31.5, 36 31.5 C33.5 31.5, 32 30.5, 32 28.5" 
          stroke="white" stroke-width="3" stroke-linecap="round" stroke-linejoin="round" fill="none"/>
    
    <!-- Road stripes at bottom -->
    <rect x="18" y="42" width="8" height="2" rx="1" fill="white" opacity="0.7"/>
    <rect x="28" y="42" width="8" height="2" rx="1" fill="white" opacity="0.7"/>
    <rect x="38" y="42" width="8" height="2" rx="1" fill="white" opacity="0.7"/>
  </g>
</svg>
